<?xml version="1.0" standalone="no"?>
<!DOCTYPE svg PUBLIC "-//W3C//DTD SVG 20010904//EN"
 "http://www.w3.org/TR/2001/REC-SVG-20010904/DTD/svg10.dtd">
<svg version="1.0" xmlns="http://www.w3.org/2000/svg"
 width="500.000000pt" height="500.000000pt" viewBox="0 0 500.000000 500.000000"
 preserveAspectRatio="xMidYMid meet">
<metadata>
Created by potrace 1.14, written by Peter Selinger 2001-2017
</metadata>
<g transform="translate(0.000000,500.000000) scale(0.100000,-0.100000)"
fill="#000000" stroke="none">
<path d="M3177 4934 c-1 -1 -25 -5 -52 -7 -28 -3 -75 -10 -105 -17 -30 -6 -65
-13 -76 -16 -152 -30 -442 -174 -553 -273 -13 -11 -27 -21 -31 -21 -13 0 -173
-167 -233 -243 -158 -200 -284 -494 -312 -727 -4 -30 -10 -59 -15 -64 -5 -4
-64 -10 -132 -12 -171 -5 -318 -18 -428 -39 -14 -2 -36 -7 -50 -9 -21 -4 -71
-15 -140 -31 -131 -32 -285 -87 -395 -144 -38 -20 -72 -38 -75 -41 -3 -3 -17
-12 -31 -20 -87 -49 -204 -168 -246 -247 -29 -55 -35 -73 -49 -153 -5 -34 -6
-1990 0 -2040 9 -83 47 -174 97 -237 57 -71 198 -183 252 -200 9 -3 17 -9 17
-14 0 -5 4 -9 10 -9 5 0 37 -13 72 -29 159 -72 373 -137 513 -156 22 -3 56 -8
75 -12 19 -3 51 -7 70 -9 19 -1 53 -5 75 -9 65 -10 473 -14 565 -5 110 10 198
20 230 26 14 3 41 7 60 9 19 3 56 10 81 16 26 6 55 12 65 14 11 2 21 4 24 5 3
1 8 2 12 1 4 0 22 6 40 13 18 8 38 15 43 15 13 1 134 40 160 51 272 118 410
222 487 366 53 98 56 133 56 626 0 249 1 487 1 528 l1 75 78 2 c217 3 419 50
617 143 65 30 229 126 258 150 6 6 36 29 64 51 93 72 275 278 304 344 12 26
32 59 41 65 24 19 146 317 164 404 27 124 19 176 -35 245 -29 36 -98 78 -143
86 -95 18 -237 129 -279 217 -35 73 -40 85 -53 148 -26 122 -37 134 -120 131
-23 -1 -54 -2 -71 -3 -115 -3 -246 61 -331 160 -102 119 -131 263 -86 427 9
31 0 93 -15 104 -5 3 -33 22 -63 42 -94 61 -136 111 -190 226 -21 45 -47 86
-57 91 -15 9 -158 13 -166 6z"/>
<path d="M4039 4559 c-91 -54 -84 -179 13 -227 40 -20 51 -22 86 -13 49 14 78
38 96 82 15 38 13 67 -9 109 -33 64 -122 87 -186 49z"/>
<path d="M4726 3929 c-88 -25 -91 -144 -3 -167 41 -11 60 -6 87 23 25 27 30
86 9 111 -23 28 -62 42 -93 33z"/>
</g>
</svg>
